<svg version="1.0" xmlns="http://www.w3.org/2000/svg" xmlns:xlink="http://www.w3.org/1999/xlink" width="600" height="600" viewBox="0 0 60 60">
<style>

@ximport url(http://fonts.googleapis.com/css?family=Raleway);
@namespace xlink 'http://www.w3.org/1999/xlink';

text { 
	font: 100 3.4px Raleway, 'Helvetica Neue', sans-serif;
	stroke-width: .25;
	stroke-linejoin: round;
}

text .bull {
	fill-opacity: .4
	stroke: none;
	stroke-width:0;
}

.sticker { fill:white }
#design2 { fill: yellow }
#design3 { fill: #f06 }

use[xlink|href="#background"] { fill: #f06 }
#design3 use[xlink|href="#background"],
#design4 use[xlink|href="#background"] { fill:black }

use[xlink|href="#text"] { stroke: white; }
#design2 use[xlink|href="#text"] { stroke:yellow }
#design3 use[xlink|href="#text"] { stroke:#f06 }

</style>
<defs>
	<path id="brace" d="M24.9,36.3c-2.7,0-4.7-0.7-6-1.9c-1.3-1.3-2-3.3-2-6.1v-4.9c0-1.3-0.3-2.3-0.9-3c-0.6-0.7-1.6-1-3-1h-1.2   v-3.7h1.2c0.7,0,1.3-0.1,1.8-0.2c0.5-0.2,0.9-0.4,1.2-0.7c0.3-0.3,0.5-0.7,0.7-1.2c0.1-0.5,0.2-1.1,0.2-1.7V8.5   c0-1.3,0.2-2.5,0.5-3.5c0.3-1,0.8-1.9,1.4-2.5c0.7-0.7,1.5-1.2,2.5-1.5c1.1-0.3,2.3-0.5,3.7-0.5h1.6v3.6h-1.2   c-0.6,0-1.2,0.1-1.7,0.2c-0.5,0.2-0.9,0.4-1.3,0.7c-0.4,0.3-0.6,0.8-0.8,1.3c-0.2,0.5-0.3,1.2-0.3,2v3.4c0,0.9-0.1,1.8-0.2,2.5   c-0.2,0.7-0.4,1.2-0.7,1.7c-0.3,0.5-0.7,0.8-1.3,1.1c-0.5,0.2-1.1,0.4-1.8,0.5c1.4,0.2,2.4,0.7,3.1,1.6c0.7,0.9,1,2.3,1,4.2v4.9   c0,0.8,0.1,1.5,0.3,2.1c0.2,0.5,0.5,1,0.8,1.3c0.4,0.3,0.8,0.6,1.3,0.7c0.5,0.1,1.1,0.2,1.7,0.2h1.2v3.7H24.9z"/>
	<path id="sword" d="M58.8,53.5L58,53.4c-0.5-0.1-0.9,0.2-1,0.7l-7.8-1.5l0.6-2.8l0.8,0.2c0.2,0,0.4-0.1,0.5-0.3l0.1-0.6   c0-0.2-0.1-0.4-0.3-0.5L48.7,48c-0.2,0-0.4,0.1-0.5,0.3l-0.1,0.6c0,0.1,0,0.2,0,0.3l-0.5,2.3C16.7,45,12.1,39.6,6.5,31.1   C3.1,47.6,33.4,52.9,46.9,55.7l-0.4,1.9l-0.8-0.2c-0.2,0-0.4,0.1-0.5,0.3l-0.1,0.6c0,0.2,0.1,0.4,0.3,0.5l2.1,0.4   c0.2,0,0.4-0.1,0.5-0.3l0.1-0.6c0-0.1,0-0.2,0-0.2l0.6-2.9l7.9,1.6l0,0.1c-0.1,0.5,0.2,0.9,0.7,1L58,58c0.5,0.1,0.9-0.2,1-0.7   l0.5-2.7C59.6,54,59.3,53.6,58.8,53.5z"/>
	<g id="logo" transform="scale(.6) translate(20,17)">
		<use xlink:href="#sword"/>
		<use xlink:href="#brace"/>

		<g transform="scale(-1,1) translate(-60,0)">
			<use xlink:href="#sword"/>
			<use xlink:href="#brace"/>
		</g>
	</g>
	<circle id="background" r="50%" cx="50%" cy="50%"/>
	<path id="textpath" d="M4.5,30 a25.5,25.5 0 1,1 0,.001"/>
	<text id="text" transform="rotate(90) translate(0,-60)">
		<textPath spacing="auto" xlink:href="#textpath">
			<tspan class="bull">•</tspan> <tspan>LEA VEROU</tspan>
			<tspan class="bull">•</tspan> FRONT-END CODE PIRATE
			<tspan class="bull">•</tspan> HTTP://LEA.VEROU.ME
			<tspan class="bull">•</tspan> LEA@VEROU.ME
			<tspan class="bull">•</tspan> @LEAVEROU
		</textPath>
	</text>
</defs>

<g id="design1" class="sticker" transform="scale(.5)">
	<use xlink:href="#background"/>
	
	<use xlink:href="#logo"/>

	<use xlink:href="#text"/>
</g>

<g id="design2" class="sticker" transform="translate(30, 0) scale(.5)">
	<use xlink:href="#background"/>
	
	<use xlink:href="#logo"/>

	<use xlink:href="#text"/>
</g>


<g id="design3" class="sticker" transform="translate(0, 30) scale(.5)">
	<use xlink:href="#background"/>
	
	<use xlink:href="#logo"/>

	<use xlink:href="#text"/>
</g>

<g id="design4" class="sticker" transform="translate(30, 30) scale(.5)">
	<use xlink:href="#background"/>
	
	<use xlink:href="#logo"/>

	<use xlink:href="#text"/>
</g>



</svg>